<svg width="48" height="40" viewBox="0 0 48 40" fill="none" xmlns="http://www.w3.org/2000/svg">
<g clip-path="url(#clip0)">
<path fill-rule="evenodd" clip-rule="evenodd" d="M45.9167 38.6666C45.9167 38.6666 49.0001 38.6666 49.0001 35.5555C49.0001 32.4444 45.9167 23.111 33.5834 23.111C21.2501 23.111 18.1667 32.4444 18.1667 35.5555C18.1667 38.6666 21.2501 38.6666 21.2501 38.6666H45.9167ZM21.3179 35.5555H45.8489C45.8634 35.5538 45.8777 35.5517 45.8921 35.5493L45.9167 35.543C45.9106 34.7217 45.4018 32.3386 43.5734 30.1919C41.8714 28.179 38.8806 26.2221 33.5834 26.2221C28.2893 26.2221 25.2985 28.1821 23.5934 30.1919C21.765 32.3386 21.2532 34.7248 21.2501 35.543C21.2726 35.5474 21.2953 35.5516 21.3179 35.5555ZM33.5834 16.8888C35.2189 16.8888 36.7874 16.2333 37.9439 15.0664C39.1004 13.8995 39.7501 12.3168 39.7501 10.6666C39.7501 9.01635 39.1004 7.4337 37.9439 6.26681C36.7874 5.09992 35.2189 4.44436 33.5834 4.44436C31.9479 4.44436 30.3794 5.09992 29.2229 6.26681C28.0664 7.4337 27.4167 9.01635 27.4167 10.6666C27.4167 12.3168 28.0664 13.8995 29.2229 15.0664C30.3794 16.2333 31.9479 16.8888 33.5834 16.8888ZM42.8334 10.6666C42.8334 11.8923 42.5942 13.1059 42.1293 14.2383C41.6644 15.3707 40.9831 16.3996 40.1242 17.2662C39.2652 18.1329 38.2455 18.8204 37.1232 19.2895C36.001 19.7585 34.7981 19.9999 33.5834 19.9999C32.3687 19.9999 31.1659 19.7585 30.0436 19.2895C28.9213 18.8204 27.9016 18.1329 27.0427 17.2662C26.1837 16.3996 25.5024 15.3707 25.0375 14.2383C24.5727 13.1059 24.3334 11.8923 24.3334 10.6666C24.3334 8.19123 25.308 5.81726 27.0427 4.06692C28.7774 2.31658 31.1302 1.33325 33.5834 1.33325C36.0367 1.33325 38.3894 2.31658 40.1242 4.06692C41.8589 5.81726 42.8334 8.19123 42.8334 10.6666ZM21.0527 23.9821C19.8194 23.5903 18.548 23.3326 17.2602 23.2137C16.5367 23.1443 15.8102 23.11 15.0834 23.111C2.75008 23.111 -0.333252 32.4444 -0.333252 35.5555C-0.333252 37.6306 0.693498 38.6666 2.75008 38.6666H15.7494C15.2923 37.6953 15.0644 36.6305 15.0834 35.5555C15.0834 32.4132 16.2458 29.2026 18.4442 26.5208C19.1935 25.6061 20.0661 24.7506 21.0527 23.9821ZM14.8367 26.2221C9.69375 26.2844 6.77383 28.2133 5.09341 30.1919C3.25266 32.351 2.75008 34.7435 2.75008 35.5555H12.0001C12.0001 32.3044 12.996 29.0657 14.8367 26.2221ZM4.29175 12.2221C4.29175 9.74679 5.2663 7.37282 7.00101 5.62248C8.73572 3.87214 11.0885 2.88881 13.5417 2.88881C15.995 2.88881 18.3478 3.87214 20.0825 5.62248C21.8172 7.37282 22.7917 9.74679 22.7917 12.2221C22.7917 14.6975 21.8172 17.0715 20.0825 18.8218C18.3478 20.5721 15.995 21.5555 13.5417 21.5555C11.0885 21.5555 8.73572 20.5721 7.00101 18.8218C5.2663 17.0715 4.29175 14.6975 4.29175 12.2221ZM13.5417 5.99992C11.9062 5.99992 10.3377 6.65547 9.18126 7.82236C8.02478 8.98926 7.37508 10.5719 7.37508 12.2221C7.37508 13.8724 8.02478 15.455 9.18126 16.6219C10.3377 17.7888 11.9062 18.4444 13.5417 18.4444C15.1772 18.4444 16.7458 17.7888 17.9022 16.6219C19.0587 15.455 19.7084 13.8724 19.7084 12.2221C19.7084 10.5719 19.0587 8.98926 17.9022 7.82236C16.7458 6.65547 15.1772 5.99992 13.5417 5.99992Z" fill="#23A6F0"/>
</g>
<defs>
<clipPath id="clip0">
<rect width="48" height="39.5295" fill="white"/>
</clipPath>
</defs>
</svg>
